<?xml version="1.0" encoding="UTF-8"?>
<!DOCTYPE svg PUBLIC "-//W3C//DTD SVG 1.1//EN" "http://www.w3.org/Graphics/SVG/1.1/DTD/svg11.dtd">
<svg xmlns="http://www.w3.org/2000/svg" xmlns:xlink="http://www.w3.org/1999/xlink" version="1.1" width="851px" height="486px" viewBox="-0.5 -0.5 851 486" style="background-color: rgb(255, 255, 255);"><defs/><g><rect x="483" y="22" width="367" height="49" fill="#bac8d3" stroke="none" pointer-events="all"/><g fill="#000000" font-family="Helvetica" text-anchor="middle" font-size="12px"><text x="666" y="43">Source: RR database curated by the Center for Open Science;</text><text x="666" y="57">retrieved November 2018</text></g><rect x="142" y="88" width="160" height="40" fill="#ffffff" stroke="#000000" pointer-events="all"/><g fill="#000000" font-family="Helvetica" font-weight="bold" text-anchor="middle" font-size="14px"><text x="221.5" y="112.5">1919 search results</text></g><path d="M 262 235 L 262 429.9" fill="none" stroke="#000000" stroke-width="3" stroke-miterlimit="10" pointer-events="stroke"/><path d="M 262 436.65 L 257.5 427.65 L 262 429.9 L 266.5 427.65 Z" fill="#000000" stroke="#000000" stroke-width="3" stroke-miterlimit="10" pointer-events="all"/><path d="M 302 215 L 317.63 215" fill="none" stroke="#000000" stroke-miterlimit="10" pointer-events="stroke"/><path d="M 322.88 215 L 315.88 218.5 L 317.63 215 L 315.88 211.5 Z" fill="#000000" stroke="#000000" stroke-miterlimit="10" pointer-events="all"/><rect x="142" y="195" width="160" height="40" fill="#ffffff" stroke="#000000" pointer-events="all"/><g fill="#000000" font-family="Helvetica" font-weight="bold" text-anchor="middle" font-size="14px"><text x="221.5" y="219.5">150 randomly sampled</text></g><path d="M 222 319 L 222 429.9" fill="none" stroke="#000000" stroke-width="3" stroke-miterlimit="10" pointer-events="stroke"/><path d="M 222 436.65 L 217.5 427.65 L 222 429.9 L 226.5 427.65 Z" fill="#000000" stroke="#000000" stroke-width="3" stroke-miterlimit="10" pointer-events="all"/><path d="M 250 300 L 317.63 300" fill="none" stroke="#000000" stroke-miterlimit="10" pointer-events="stroke"/><path d="M 322.88 300 L 315.88 303.5 L 317.63 300 L 315.88 296.5 Z" fill="#000000" stroke="#000000" stroke-miterlimit="10" pointer-events="all"/><rect x="68" y="280" width="182" height="40" fill="#ffffff" stroke="#000000" pointer-events="all"/><g fill="#000000" font-family="Helvetica" font-weight="bold" text-anchor="middle" font-size="14px"><text x="158.5" y="304.5">8 additional SRs sampled</text></g><rect x="10" y="348" width="170" height="40" fill="#ffffff" stroke="#000000" pointer-events="all"/><g fill="#000000" font-family="Helvetica" font-weight="bold" text-anchor="middle" font-size="14px"><text x="94.5" y="372.5">1 additional SR sampled</text></g><rect x="142" y="440" width="160" height="45" fill="#ffffff" stroke="#000000" pointer-events="all"/><g fill="#000000" font-family="Helvetica" font-weight="bold" text-anchor="middle" font-size="14px"><text x="221.5" y="458.5">152 SRs included</text><text x="221.5" y="475.5">in analysis</text></g><rect x="324" y="167" width="145" height="95" fill="#ffffff" stroke="#000000" pointer-events="all"/><g fill="#000000" font-family="Helvetica" font-size="12px"><text x="330.5" y="183">6 excluded:</text><text x="330.5" y="197">faulty DOI: 1</text><text x="330.5" y="211">study protocol</text><text x="330.5" y="225">without results: 2</text><text x="330.5" y="239">no hypothesis test: 2</text><text x="330.5" y="253">insufficient information: 1</text></g><rect x="324" y="282" width="145" height="35" fill="#ffffff" stroke="#000000" pointer-events="all"/><g fill="#000000" font-family="Helvetica" font-size="12px"><text x="330.5" y="296">1 excluded: </text><text x="330.5" y="310">no hypothesis test</text></g><path d="M 654 108 L 685.63 108" fill="none" stroke="#000000" stroke-miterlimit="10" pointer-events="stroke"/><path d="M 690.88 108 L 683.88 111.5 L 685.63 108 L 683.88 104.5 Z" fill="#000000" stroke="#000000" stroke-miterlimit="10" pointer-events="all"/><rect x="494" y="88" width="160" height="40" fill="#ffffff" stroke="#000000" pointer-events="all"/><g fill="#000000" font-family="Helvetica" font-weight="bold" text-anchor="middle" font-size="14px"><text x="573.5" y="112.5">151 database entries</text></g><path d="M 654 259 L 685.63 259" fill="none" stroke="#000000" stroke-miterlimit="10" pointer-events="stroke"/><path d="M 690.88 259 L 683.88 262.5 L 685.63 259 L 683.88 255.5 Z" fill="#000000" stroke="#000000" stroke-miterlimit="10" pointer-events="all"/><rect x="494" y="239" width="160" height="40" fill="#ffffff" stroke="#000000" pointer-events="all"/><g fill="#000000" font-family="Helvetica" font-weight="bold" text-anchor="middle" font-size="14px"><text x="573.5" y="263.5">96 Psychology</text></g><path d="M 654 366 L 685.63 366" fill="none" stroke="#000000" stroke-miterlimit="10" pointer-events="stroke"/><path d="M 690.88 366 L 683.88 369.5 L 685.63 366 L 683.88 362.5 Z" fill="#000000" stroke="#000000" stroke-miterlimit="10" pointer-events="all"/><rect x="494" y="345.5" width="160" height="40" fill="#ffffff" stroke="#000000" pointer-events="all"/><g fill="#000000" font-family="Helvetica" font-weight="bold" text-anchor="middle" font-size="14px"><text x="573.5" y="370">84 certain RRs</text></g><rect x="494" y="440" width="160" height="45" fill="#ffffff" stroke="#000000" pointer-events="all"/><g fill="#000000" font-family="Helvetica" font-weight="bold" text-anchor="middle" font-size="14px"><text x="573.5" y="458.5">71 RRs included</text><text x="573.5" y="475.5">in analysis</text></g><rect x="692" y="85" width="148" height="130" fill="#ffffff" stroke="#000000" pointer-events="all"/><g fill="#000000" font-family="Helvetica" font-size="12px"><text x="698.5" y="104.5">55 other:</text><text x="698.5" y="118.5">Neuroscience: 14</text><text x="698.5" y="132.5">Clinical medicine: 17</text><text x="698.5" y="146.5">Cancer biology: 11</text><text x="698.5" y="160.5">Accounting research: 8</text><text x="698.5" y="174.5">Political science: 3</text><text x="698.5" y="188.5">Animal behaviour: 1</text><text x="698.5" y="202.5">Computer science: 1</text></g><rect x="692" y="237" width="148" height="86" fill="#ffffff" stroke="#000000" pointer-events="all"/><g fill="#000000" font-family="Helvetica" font-size="12px"><text x="698.5" y="255.5">12 not certainly RRs:</text><text x="698.5" y="269.5">preregistered: 4</text><text x="698.5" y="283.5">results-blind review: 2</text><text x="698.5" y="297.5">correction note: 1</text><text x="698.5" y="311.5">ambiguous: 5</text></g><rect x="692" y="341" width="148" height="66" fill="#ffffff" stroke="#000000" pointer-events="all"/><g fill="#000000" font-family="Helvetica" font-size="12px"><text x="698.5" y="356.5">13 excluded:</text><text x="698.5" y="370.5">RRRs: 8</text><text x="698.5" y="384.5">no hypothesis test: 3</text><text x="698.5" y="398.5">insufficient information: 2</text></g><path d="M 222 128 L 222 152 Q 222 162 222 172 L 222 182.65" fill="none" stroke="#000000" stroke-width="3" stroke-miterlimit="10" pointer-events="stroke"/><path d="M 222 191.65 L 217.5 182.65 L 226.5 182.65 Z" fill="#000000" stroke="#000000" stroke-width="3" stroke-miterlimit="10" pointer-events="all"/><path d="M 203 129 L 203 172 Q 203 182 193 182 L 124 182 Q 114 182 114 192 L 114 267.65" fill="none" stroke="#000000" stroke-width="3" stroke-miterlimit="10" pointer-events="stroke"/><path d="M 114 276.65 L 109.5 267.65 L 118.5 267.65 Z" fill="#000000" stroke="#000000" stroke-width="3" stroke-miterlimit="10" pointer-events="all"/><path d="M 182 128 L 182 162 Q 182 172 172 172 L 63 172 Q 53 172 53 182 L 53 335.65" fill="none" stroke="#000000" stroke-width="3" stroke-miterlimit="10" pointer-events="stroke"/><path d="M 53 344.65 L 48.5 335.65 L 57.5 335.65 Z" fill="#000000" stroke="#000000" stroke-width="3" stroke-miterlimit="10" pointer-events="all"/><path d="M 95 388 L 95 404 Q 95 414 105 414 L 172 414 Q 182 414 182 420.82 L 182 427.65" fill="none" stroke="#000000" stroke-width="3" stroke-miterlimit="10" pointer-events="stroke"/><path d="M 182 436.65 L 177.5 427.65 L 186.5 427.65 Z" fill="#000000" stroke="#000000" stroke-width="3" stroke-miterlimit="10" pointer-events="all"/><path d="M 574 128 L 574 174 Q 574 184 574 194 L 574 226.65" fill="none" stroke="#000000" stroke-width="3" stroke-miterlimit="10" pointer-events="stroke"/><path d="M 574 235.65 L 569.5 226.65 L 578.5 226.65 Z" fill="#000000" stroke="#000000" stroke-width="3" stroke-miterlimit="10" pointer-events="all"/><path d="M 574 279 L 574 302 Q 574 312 574 322 L 574 333.15" fill="none" stroke="#000000" stroke-width="3" stroke-miterlimit="10" pointer-events="stroke"/><path d="M 574 342.15 L 569.5 333.15 L 578.5 333.15 Z" fill="#000000" stroke="#000000" stroke-width="3" stroke-miterlimit="10" pointer-events="all"/><path d="M 574 385.5 L 574 403 Q 574 413 574 420.32 L 574 427.65" fill="none" stroke="#000000" stroke-width="3" stroke-miterlimit="10" pointer-events="stroke"/><path d="M 574 436.65 L 569.5 427.65 L 578.5 427.65 Z" fill="#000000" stroke="#000000" stroke-width="3" stroke-miterlimit="10" pointer-events="all"/><rect x="483" y="0" width="367" height="30" fill="#bac8d3" stroke="none" pointer-events="all"/><g fill="#000000" font-family="Helvetica" font-weight="bold" text-anchor="middle" font-size="16px"><text x="666" y="20.5">Registered Reports (RRs)</text></g><rect x="0" y="22" width="479" height="49" fill="#bac8d3" stroke="none" pointer-events="all"/><g fill="#000000" font-family="Helvetica" text-anchor="middle" font-size="12px"><text x="239" y="43">Source: WoS search for 'test* the hypothes*' in articles published 2013-2018 in all</text><text x="239" y="57">633 Psychiatry/Psychology journals in the ESI database; retrieved December 2018</text></g><rect x="0" y="0" width="479" height="30" fill="#bac8d3" stroke="none" pointer-events="all"/><g fill="#000000" font-family="Helvetica" font-weight="bold" text-anchor="middle" font-size="16px"><text x="239" y="20.5">Standard reports (SRs)</text></g></g></svg>